<?xml version="1.0" encoding="UTF-8"?>
<!DOCTYPE svg PUBLIC "-//W3C//DTD SVG 1.1//EN" "http://www.w3.org/Graphics/SVG/1.1/DTD/svg11.dtd">
<svg xmlns="http://www.w3.org/2000/svg" version="1.1" width="700px" height="440px" style="shape-rendering:geometricPrecision; text-rendering:geometricPrecision; image-rendering:optimizeQuality; fill-rule:evenodd; clip-rule:evenodd" xmlns:xlink="http://www.w3.org/1999/xlink">
   <g>
      <path style="opacity:1" fill="#97ce68" d="M 117.5,252.5 C 116.507,261.318 116.173,270.318 116.5,279.5C 127.833,279.5 139.167,279.5 150.5,279.5C 150.5,280.5 150.5,281.5 150.5,282.5C 125.833,282.5 101.167,282.5 76.5,282.5C 76.5,281.5 76.5,280.5 76.5,279.5C 87.8333,279.5 99.1667,279.5 110.5,279.5C 110.831,270.808 110.498,262.141 109.5,253.5C 105.701,255.422 101.701,255.922 97.5,255C 89.0761,251.714 82.5761,246.214 78,238.5C 77.2713,234.623 77.438,230.789 78.5,227C 69.0372,217.915 68.0372,207.915 75.5,197C 70.7702,183.624 75.1035,174.457 88.5,169.5C 94.58,156.64 103.913,153.473 116.5,160C 118.333,161.833 120.167,163.667 122,165.5C 132.891,160.252 141.558,162.919 148,173.5C 148.667,177.833 148.667,182.167 148,186.5C 146.164,188.962 146.997,190.462 150.5,191C 158.198,196.591 160.531,203.924 157.5,213C 162.791,226.49 158.791,235.824 145.5,241C 139.729,254.064 130.396,257.898 117.5,252.5 Z"/>
      <path style="opacity:1" fill="#9acf6d" d="M 192.5,189.5 C 205.472,188.663 213.972,194.33 218,206.5C 219.868,215.826 219.868,225.159 218,234.5C 217.355,235.646 216.522,236.646 215.5,237.5C 216.565,239.853 216.398,242.186 215,244.5C 206.876,254.054 196.709,257.221 184.5,254C 176.339,251.001 171.672,245.168 170.5,236.5C 171.856,234.73 173.356,233.064 175,231.5C 176,232.833 177,232.833 178,231.5C 179.462,234.655 179.629,237.655 178.5,240.5C 179.594,245.096 182.428,247.763 187,248.5C 190.008,246.494 193.008,244.494 196,242.5C 199.384,236.958 200.884,230.958 200.5,224.5C 196.774,224.823 193.107,224.489 189.5,223.5C 188.718,221.671 189.384,220.171 191.5,219C 194.482,218.502 197.482,218.335 200.5,218.5C 200.913,212.951 200.08,207.618 198,202.5C 193.48,198.251 188.647,197.418 183.5,200C 180.432,203.937 179.765,208.271 181.5,213C 173.944,214.085 171.444,210.919 174,203.5C 175.923,199.742 178.423,196.409 181.5,193.5C 185.166,191.819 188.832,190.485 192.5,189.5 Z"/>
      <path style="opacity:1" fill="#9acf6c" fill-rule="evenodd" 
         d="M 295.5,193.5 C 302.373,192.965 309.04,193.799 315.5,196C 318.881,198.38 321.547,201.38 323.5,205C 322.167,205.333 320.833,205.667 319.5,206C 321.219,207.057 323.053,207.89 325,208.5C 328.689,221.285 327.689,233.619 322,245.5C 321,246.833 320,246.833 319,245.5C 318.51,246.793 318.343,248.127 318.5,249.5C 317.178,249.67 316.011,249.337 315,248.5C 313.98,249.891 313.147,251.391 312.5,253C 288.973,260.556 276.973,251.889 276.5,227C 276.043,218.336 278.21,210.169 283,202.5C 286.811,198.832 290.978,195.832 295.5,193.5 Z 
         M 299.5,198.5 C 302.505,198.253 305.005,199.253 307,201.5C 307.979,205.673 308.812,209.839 309.5,214C 309.633,223.524 309.133,233.357 308,243.5C 303.449,251.427 299.116,251.427 295,243.5C 293.09,230.492 293.09,217.492 295,204.5C 295.599,201.746 297.099,199.746 299.5,198.5 Z"/>
      <path style="opacity:1" fill="#9bcf6e" fill-rule="evenodd"
         d="M 593.5,193.5 C 605.232,191.235 614.399,194.901 621,204.5C 622.508,210.276 621.008,215.109 616.5,219C 618.684,221.517 621.184,223.683 624,225.5C 629.076,239.625 624.576,249.125 610.5,254C 598.415,256.977 588.915,253.477 582,243.5C 582.376,239.791 582.376,236.124 582,232.5C 582.374,231.584 582.874,230.75 583.5,230C 584.825,230.148 585.992,229.982 587,229.5C 587.635,227.382 588.469,225.382 589.5,223.5C 589.167,221.167 588.167,220.833 586.5,222.5C 579.412,210.559 581.745,200.892 593.5,193.5 Z
         M 599.5,200.5 C 605.049,200.087 610.382,200.92 615.5,203C 616.804,203.804 617.471,204.971 617.5,206.5C 616.328,210.913 613.828,214.246 610,216.5C 604.388,214.377 598.888,212.044 593.5,209.5C 591.876,208.131 591.376,206.464 592,204.5C 594.255,202.501 596.755,201.168 599.5,200.5 Z
         M 593.5,228.5 C 599.855,230.299 606.022,232.632 612,235.5C 614.086,241.835 611.919,246.335 605.5,249C 599.716,250.509 594.883,249.009 591,244.5C 587.366,238.392 588.199,233.058 593.5,228.5 Z"/>
      <path style="opacity:1" fill="#99cf6c" d="M 228.5,194.5 C 233.014,194.979 237.514,195.313 242,195.5C 242.333,201.5 242.667,207.5 243,213.5C 243.725,214.059 244.558,214.392 245.5,214.5C 247.457,213.046 249.29,211.38 251,209.5C 253.799,203.724 257.632,199.557 262.5,197C 262.043,196.586 261.709,196.086 261.5,195.5C 266.084,193.972 267.584,195.638 266,200.5C 261.865,204.134 258.698,208.467 256.5,213.5C 257.959,216.252 259.292,219.086 260.5,222C 259.62,223.356 259.286,224.856 259.5,226.5C 260.978,226.238 262.311,226.571 263.5,227.5C 267.368,235.403 271.368,243.236 275.5,251C 274.672,251.915 273.672,252.581 272.5,253C 267.778,253.777 263.111,253.61 258.5,252.5C 257.5,251.5 256.5,250.5 255.5,249.5C 252.478,243.973 249.811,238.306 247.5,232.5C 246.272,230.679 244.606,229.679 242.5,229.5C 242.305,233.547 242.638,237.547 243.5,241.5C 242.979,245.191 242.312,248.857 241.5,252.5C 237.223,253.606 232.89,253.772 228.5,253C 227.313,251.981 226.313,250.814 225.5,249.5C 230.492,247.579 230.492,246.579 225.5,246.5C 225.731,230.14 225.897,213.473 226,196.5C 226.995,195.934 227.828,195.267 228.5,194.5 Z"/>
      <path style="opacity:1" fill="#9acf6d" fill-rule="evenodd"
         d="M 339.5,194.5 C 350.52,194.168 361.52,194.501 372.5,195.5C 373.144,200.951 373.478,206.451 373.5,212C 373.451,217.676 372.785,223.176 371.5,228.5C 373.225,233.95 374.058,239.616 374,245.5C 376.071,246.364 377.738,247.697 379,249.5C 379.667,253.167 379.667,256.833 379,260.5C 377.867,262.211 376.367,262.711 374.5,262C 373.736,259.931 373.236,257.764 373,255.5C 372.25,254.874 371.416,254.374 370.5,254C 359.756,253.631 349.089,253.464 338.5,253.5C 336.332,255.633 334.666,258.133 333.5,261C 332.207,261.49 330.873,261.657 329.5,261.5C 329.334,257.486 329.501,253.486 330,249.5C 333.667,248.5 336,246.167 337,242.5C 337.333,227.167 337.667,211.833 338,196.5C 338.717,195.956 339.217,195.289 339.5,194.5 Z
         M 345.5,200.5 C 350.221,199.732 354.221,200.899 357.5,204C 356.374,207.744 356.207,211.577 357,215.5C 358.018,214.294 358.518,214.627 358.5,216.5C 356.77,226.377 355.937,236.377 356,246.5C 351.599,247.467 347.099,247.8 342.5,247.5C 342.833,244.833 343.167,242.167 343.5,239.5C 342.022,239.762 340.689,239.429 339.5,238.5C 340.391,237.41 341.391,237.41 342.5,238.5C 343.333,226.848 343.833,215.181 344,203.5C 344.513,202.473 345.013,201.473 345.5,200.5 Z"/>
      <path style="opacity:1" fill="#99cf6b" d="M 400.5,236.5 C 398.358,235.402 397.025,236.236 396.5,239C 397.891,240.02 399.391,240.853 401,241.5C 401.202,243.256 401.702,244.922 402.5,246.5C 409.117,247.296 415.783,247.796 422.5,248C 426.515,250.333 426.181,251.999 421.5,253C 409.505,253.5 397.505,253.667 385.5,253.5C 384.921,247.148 384.255,240.815 383.5,234.5C 384.167,232.833 384.833,231.167 385.5,229.5C 384.189,218.198 384.189,206.865 385.5,195.5C 396.787,194.355 408.12,194.189 419.5,195C 421.527,196.396 421.86,198.062 420.5,200C 415.446,200.781 410.446,200.614 405.5,199.5C 404.252,200.04 403.085,200.707 402,201.5C 401.171,206.864 401.337,212.198 402.5,217.5C 407.113,218.279 411.78,218.779 416.5,219C 417.991,221.022 417.658,222.688 415.5,224C 411.129,224.172 406.796,224.672 402.5,225.5C 401.832,229.197 401.165,232.863 400.5,236.5 Z"/>
      <path style="opacity:1" fill="#99cf6c" d="M 429.5,193.5 C 430.404,194.209 430.737,195.209 430.5,196.5C 432.592,196.439 434.092,195.439 435,193.5C 445.914,193.938 456.747,194.438 467.5,195C 468.328,195.915 469.328,196.581 470.5,197C 469.833,198 469.167,199 468.5,200C 464.848,200.499 461.182,200.665 457.5,200.5C 456.709,217.469 456.209,234.469 456,251.5C 453.392,254.297 450.726,254.63 448,252.5C 444.664,254.144 441.664,253.81 439,251.5C 438.807,246.25 438.307,241.083 437.5,236C 438.653,224.91 438.82,213.743 438,202.5C 433.699,201.106 429.366,199.773 425,198.5C 424.508,197.451 424.674,196.451 425.5,195.5C 426.949,194.828 428.282,194.161 429.5,193.5 Z"/>
      <path style="opacity:1" fill="#9acf6c" d="M 475.5,194.5 C 480.167,194.5 484.833,194.5 489.5,194.5C 491.731,206.271 492.065,218.104 490.5,230C 491.191,231.067 491.691,232.234 492,233.5C 493.091,231.282 494.257,229.116 495.5,227C 495.167,226.667 494.833,226.333 494.5,226C 498.527,216.08 502.027,205.913 505,195.5C 510.667,194.167 516.333,194.167 522,195.5C 523.036,200.73 522.536,205.73 520.5,210.5C 521.797,217.499 522.464,224.666 522.5,232C 522.167,238.833 521.833,245.667 521.5,252.5C 516.303,253.814 511.136,253.814 506,252.5C 505.333,247.167 505.333,241.833 506,236.5C 506.692,235.975 507.192,235.308 507.5,234.5C 505.748,227.368 504.914,220.034 505,212.5C 500.682,225.616 496.182,238.95 491.5,252.5C 485.946,253.806 480.446,253.806 475,252.5C 474.434,244.504 473.934,236.504 473.5,228.5C 475.096,217.057 475.763,205.724 475.5,194.5 Z"/>
      <path style="opacity:1" fill="#9acf6c" fill-rule="evenodd"
         d="M 556.5,194.5 C 559.518,194.335 562.518,194.502 565.5,195C 566,195.5 566.5,196 567,196.5C 567.818,206.411 567.651,216.244 566.5,226C 567.264,228.069 567.764,230.236 568,232.5C 569.939,234.194 571.772,236.027 573.5,238C 571.957,239.878 570.124,241.378 568,242.5C 567.824,245.882 567.324,249.215 566.5,252.5C 561.889,253.61 557.222,253.777 552.5,253C 551.867,249.541 551.2,246.041 550.5,242.5C 543.851,241.751 537.184,241.084 530.5,240.5C 530.211,237.351 530.711,234.351 532,231.5C 539.677,218.804 547.844,206.471 556.5,194.5 Z
         M 547.5,219.5 C 549.124,219.36 550.29,220.027 551,221.5C 551.978,225.9 551.478,230.067 549.5,234C 546.469,234.495 543.469,234.329 540.5,233.5C 540.519,231.94 540.852,230.44 541.5,229C 543.413,225.727 545.413,222.56 547.5,219.5 Z"/>
      <path style="opacity:1" fill="#b2db8f" d="M 400.5,236.5 C 401.776,237.386 401.776,238.386 400.5,239.5C 399.913,238.767 399.913,237.767 400.5,236.5 Z"/>
   </g>
</svg>
