<svg width="557" height="127" viewBox="0 0 557 127" fill="none" xmlns="http://www.w3.org/2000/svg">
<path fill-rule="evenodd" clip-rule="evenodd" d="M47.5 96.5C46.507 105.318 46.173 114.318 46.5 123.5C57.833 123.5 69.167 123.5 80.5 123.5C80.5 124.5 80.5 125.5 80.5 126.5C55.833 126.5 31.167 126.5 6.5 126.5C6.5 125.5 6.5 124.5 6.5 123.5C17.8333 123.5 29.1667 123.5 40.5 123.5C40.831 114.808 40.498 106.141 39.5 97.5C35.701 99.422 31.701 99.922 27.5 99C19.0761 95.714 12.5761 90.214 8 82.5C7.2713 78.623 7.438 74.789 8.5 71C-0.962799 61.915 -1.9628 51.915 5.5 41C0.770201 27.624 5.1035 18.457 18.5 13.5C24.58 0.640005 33.913 -2.527 46.5 4C48.333 5.833 50.167 7.667 52 9.5C62.891 4.252 71.558 6.919 78 17.5C78.667 21.833 78.667 26.167 78 30.5C76.164 32.962 76.997 34.462 80.5 35C88.198 40.591 90.531 47.924 87.5 57C92.791 70.49 88.791 79.824 75.5 85C69.729 98.064 60.396 101.898 47.5 96.5Z" fill="#97CE68"/>
<path fill-rule="evenodd" clip-rule="evenodd" d="M122.5 33.5C135.472 32.663 143.972 38.33 148 50.5C149.868 59.826 149.868 69.159 148 78.5C147.355 79.646 146.522 80.646 145.5 81.5C146.565 83.853 146.398 86.186 145 88.5C136.876 98.054 126.709 101.221 114.5 98C106.339 95.001 101.672 89.168 100.5 80.5C101.856 78.73 103.356 77.064 105 75.5C106 76.833 107 76.833 108 75.5C109.462 78.655 109.629 81.655 108.5 84.5C109.594 89.096 112.428 91.763 117 92.5C120.008 90.494 123.008 88.494 126 86.5C129.384 80.958 130.884 74.958 130.5 68.5C126.774 68.823 123.107 68.489 119.5 67.5C118.718 65.671 119.384 64.171 121.5 63C124.482 62.502 127.482 62.335 130.5 62.5C130.913 56.951 130.08 51.618 128 46.5C123.48 42.251 118.647 41.418 113.5 44C110.432 47.937 109.765 52.271 111.5 57C103.944 58.085 101.444 54.919 104 47.5C105.923 43.742 108.423 40.409 111.5 37.5C115.166 35.819 118.832 34.485 122.5 33.5Z" fill="#9ACF6D"/>
<path fill-rule="evenodd" clip-rule="evenodd" d="M225.5 37.5C232.373 36.965 239.04 37.799 245.5 40C248.881 42.38 251.547 45.38 253.5 49C252.167 49.333 250.833 49.667 249.5 50C251.219 51.057 253.053 51.89 255 52.5C258.689 65.285 257.689 77.619 252 89.5C251 90.833 250 90.833 249 89.5C248.51 90.793 248.343 92.127 248.5 93.5C247.178 93.67 246.011 93.337 245 92.5C243.98 93.891 243.147 95.391 242.5 97C218.973 104.556 206.973 95.889 206.5 71C206.043 62.336 208.21 54.169 213 46.5C216.811 42.832 220.978 39.832 225.5 37.5ZM229.5 42.5C232.505 42.253 235.005 43.253 237 45.5C237.979 49.673 238.812 53.839 239.5 58C239.633 67.524 239.133 77.357 238 87.5C233.449 95.427 229.116 95.427 225 87.5C223.09 74.492 223.09 61.492 225 48.5C225.599 45.746 227.099 43.746 229.5 42.5Z" fill="#9ACF6C"/>
<path fill-rule="evenodd" clip-rule="evenodd" d="M523.5 37.5C535.232 35.235 544.399 38.901 551 48.5C552.508 54.276 551.008 59.109 546.5 63C548.684 65.517 551.184 67.683 554 69.5C559.076 83.625 554.576 93.125 540.5 98C528.415 100.977 518.915 97.477 512 87.5C512.376 83.791 512.376 80.124 512 76.5C512.374 75.584 512.874 74.75 513.5 74C514.825 74.148 515.992 73.982 517 73.5C517.635 71.382 518.469 69.382 519.5 67.5C519.167 65.167 518.167 64.833 516.5 66.5C509.412 54.559 511.745 44.892 523.5 37.5ZM529.5 44.5C535.049 44.087 540.382 44.92 545.5 47C546.804 47.804 547.471 48.971 547.5 50.5C546.328 54.913 543.828 58.246 540 60.5C534.388 58.377 528.888 56.044 523.5 53.5C521.876 52.131 521.376 50.464 522 48.5C524.255 46.501 526.755 45.168 529.5 44.5ZM523.5 72.5C529.855 74.299 536.022 76.632 542 79.5C544.086 85.835 541.919 90.335 535.5 93C529.716 94.509 524.883 93.009 521 88.5C517.366 82.392 518.199 77.058 523.5 72.5Z" fill="#9BCF6E"/>
<path fill-rule="evenodd" clip-rule="evenodd" d="M158.5 38.5C163.014 38.979 167.514 39.313 172 39.5C172.333 45.5 172.667 51.5 173 57.5C173.725 58.059 174.558 58.392 175.5 58.5C177.457 57.046 179.29 55.38 181 53.5C183.799 47.724 187.632 43.557 192.5 41C192.043 40.586 191.709 40.086 191.5 39.5C196.084 37.972 197.584 39.638 196 44.5C191.865 48.134 188.698 52.467 186.5 57.5C187.959 60.252 189.292 63.086 190.5 66C189.62 67.356 189.286 68.856 189.5 70.5C190.978 70.238 192.311 70.571 193.5 71.5C197.368 79.403 201.368 87.236 205.5 95C204.672 95.915 203.672 96.581 202.5 97C197.778 97.777 193.111 97.61 188.5 96.5C187.5 95.5 186.5 94.5 185.5 93.5C182.478 87.973 179.811 82.306 177.5 76.5C176.272 74.679 174.606 73.679 172.5 73.5C172.305 77.547 172.638 81.547 173.5 85.5C172.979 89.191 172.312 92.857 171.5 96.5C167.223 97.606 162.89 97.772 158.5 97C157.313 95.981 156.313 94.814 155.5 93.5C160.492 91.579 160.492 90.579 155.5 90.5C155.731 74.14 155.897 57.473 156 40.5C156.995 39.934 157.828 39.267 158.5 38.5Z" fill="#99CF6C"/>
<path fill-rule="evenodd" clip-rule="evenodd" d="M269.5 38.5C280.52 38.168 291.52 38.501 302.5 39.5C303.144 44.951 303.478 50.451 303.5 56C303.451 61.676 302.785 67.176 301.5 72.5C303.225 77.95 304.058 83.616 304 89.5C306.071 90.364 307.738 91.697 309 93.5C309.667 97.167 309.667 100.833 309 104.5C307.867 106.211 306.367 106.711 304.5 106C303.736 103.931 303.236 101.764 303 99.5C302.25 98.874 301.416 98.374 300.5 98C289.756 97.631 279.089 97.464 268.5 97.5C266.332 99.633 264.666 102.133 263.5 105C262.207 105.49 260.873 105.657 259.5 105.5C259.334 101.486 259.501 97.486 260 93.5C263.667 92.5 266 90.167 267 86.5C267.333 71.167 267.667 55.833 268 40.5C268.717 39.956 269.217 39.289 269.5 38.5ZM275.5 44.5C280.221 43.732 284.221 44.899 287.5 48C286.374 51.744 286.207 55.577 287 59.5C288.018 58.294 288.518 58.627 288.5 60.5C286.77 70.377 285.937 80.377 286 90.5C281.599 91.467 277.099 91.8 272.5 91.5C272.833 88.833 273.167 86.167 273.5 83.5C272.022 83.762 270.689 83.429 269.5 82.5C270.391 81.41 271.391 81.41 272.5 82.5C273.333 70.848 273.833 59.181 274 47.5C274.513 46.473 275.013 45.473 275.5 44.5Z" fill="#9ACF6D"/>
<path fill-rule="evenodd" clip-rule="evenodd" d="M330.5 80.5C328.358 79.402 327.025 80.236 326.5 83C327.891 84.02 329.391 84.853 331 85.5C331.202 87.256 331.702 88.922 332.5 90.5C339.117 91.296 345.783 91.796 352.5 92C356.515 94.333 356.181 95.999 351.5 97C339.505 97.5 327.505 97.667 315.5 97.5C314.921 91.148 314.255 84.815 313.5 78.5C314.167 76.833 314.833 75.167 315.5 73.5C314.189 62.198 314.189 50.865 315.5 39.5C326.787 38.355 338.12 38.189 349.5 39C351.527 40.396 351.86 42.062 350.5 44C345.446 44.781 340.446 44.614 335.5 43.5C334.252 44.04 333.085 44.707 332 45.5C331.171 50.864 331.337 56.198 332.5 61.5C337.113 62.279 341.78 62.779 346.5 63C347.991 65.022 347.658 66.688 345.5 68C341.129 68.172 336.796 68.672 332.5 69.5C331.832 73.197 331.165 76.863 330.5 80.5Z" fill="#99CF6B"/>
<path fill-rule="evenodd" clip-rule="evenodd" d="M359.5 37.5C360.404 38.209 360.737 39.209 360.5 40.5C362.592 40.439 364.092 39.439 365 37.5C375.914 37.938 386.747 38.438 397.5 39C398.328 39.915 399.328 40.581 400.5 41C399.833 42 399.167 43 398.5 44C394.848 44.499 391.182 44.665 387.5 44.5C386.709 61.469 386.209 78.469 386 95.5C383.392 98.297 380.726 98.63 378 96.5C374.664 98.144 371.664 97.81 369 95.5C368.807 90.25 368.307 85.083 367.5 80C368.653 68.91 368.82 57.743 368 46.5C363.699 45.106 359.366 43.773 355 42.5C354.508 41.451 354.674 40.451 355.5 39.5C356.949 38.828 358.282 38.161 359.5 37.5Z" fill="#99CF6C"/>
<path fill-rule="evenodd" clip-rule="evenodd" d="M405.5 38.5C410.167 38.5 414.833 38.5 419.5 38.5C421.731 50.271 422.065 62.104 420.5 74C421.191 75.067 421.691 76.234 422 77.5C423.091 75.282 424.257 73.116 425.5 71C425.167 70.667 424.833 70.333 424.5 70C428.527 60.08 432.027 49.913 435 39.5C440.667 38.167 446.333 38.167 452 39.5C453.036 44.73 452.536 49.73 450.5 54.5C451.797 61.499 452.464 68.666 452.5 76C452.167 82.833 451.833 89.667 451.5 96.5C446.303 97.814 441.136 97.814 436 96.5C435.333 91.167 435.333 85.833 436 80.5C436.692 79.975 437.192 79.308 437.5 78.5C435.748 71.368 434.914 64.034 435 56.5C430.682 69.616 426.182 82.95 421.5 96.5C415.946 97.806 410.446 97.806 405 96.5C404.434 88.504 403.934 80.504 403.5 72.5C405.096 61.057 405.763 49.724 405.5 38.5Z" fill="#9ACF6C"/>
<path fill-rule="evenodd" clip-rule="evenodd" d="M486.5 38.5C489.518 38.335 492.518 38.502 495.5 39C496 39.5 496.5 40 497 40.5C497.818 50.411 497.651 60.244 496.5 70C497.264 72.069 497.764 74.236 498 76.5C499.939 78.194 501.772 80.027 503.5 82C501.957 83.878 500.124 85.378 498 86.5C497.824 89.882 497.324 93.215 496.5 96.5C491.889 97.61 487.222 97.777 482.5 97C481.867 93.541 481.2 90.041 480.5 86.5C473.851 85.751 467.184 85.084 460.5 84.5C460.211 81.351 460.711 78.351 462 75.5C469.677 62.804 477.844 50.471 486.5 38.5ZM477.5 63.5C479.124 63.36 480.29 64.027 481 65.5C481.978 69.9 481.478 74.067 479.5 78C476.469 78.495 473.469 78.329 470.5 77.5C470.519 75.94 470.852 74.44 471.5 73C473.413 69.727 475.413 66.56 477.5 63.5Z" fill="#9ACF6C"/>
<path fill-rule="evenodd" clip-rule="evenodd" d="M330.5 80.5C331.776 81.386 331.776 82.386 330.5 83.5C329.913 82.767 329.913 81.767 330.5 80.5Z" fill="#B2DB8F"/>
</svg>
